<?xml version="1.0" encoding="UTF-8"?>
<svg version="1.1" xmlns="http://www.w3.org/2000/svg" width="500" height="500">
<path d="M0 0 C34.98 0 69.96 0 106 0 C106 4.95 106 9.9 106 15 C76.63 15 47.26 15 17 15 C17 31.5 17 48 17 65 C11.39 65 5.78 65 0 65 C0 43.55 0 22.1 0 0 Z " fill="#000000" transform="translate(143,165)"/>
<path d="M0 0 C5.61 0 11.22 0 17 0 C17 16.17 17 32.34 17 49 C47.03 49 77.06 49 108 49 C108 53.62 108 58.24 108 63 C72.36 63 36.72 63 0 63 C0 42.21 0 21.42 0 0 Z " fill="#000000" transform="translate(143,261)"/>
<path d="M0 0 C18.27437997 -2.20056713 18.27437997 -2.20056713 23.94433594 1.1484375 C27.26796129 4.25624303 29.51038873 8.06974767 31.77148438 11.98486328 C33.85943882 15.40973927 36.41344885 18.45333741 38.9375 21.5625 C39.8235624 22.68727038 40.70777892 23.81349818 41.58984375 24.94140625 C43.71424096 27.63735928 45.85580978 30.31976222 48 33 C48.33 22.11 48.66 11.22 49 0 C54.61 0 60.22 0 66 0 C66 20.79 66 41.58 66 63 C60.39 63 54.78 63 49 63 C42.43789395 56.15865539 42.43789395 56.15865539 40.53515625 52.98828125 C38.11978192 49.12536551 35.41909265 45.60613409 32.5625 42.0625 C31.64593791 40.89807702 30.73058311 39.73270278 29.81640625 38.56640625 C26.89716678 34.86188625 23.95024467 31.1798444 21 27.5 C16.98634437 22.48994507 12.97991921 17.47441673 9 12.4375 C8.55527344 11.87804687 8.11054688 11.31859375 7.65234375 10.7421875 C4.91169512 7.26399429 2.40975205 3.70945628 0 0 Z " fill="#000000" transform="translate(324,261)"/>
<path d="M0 0 C5.28 0 10.56 0 16 0 C17 1 17 1 17.12025452 3.54994202 C17.1169236 5.25204079 17.1169236 5.25204079 17.11352539 6.98852539 C17.11344986 8.26977798 17.11337433 9.55103058 17.11329651 10.87110901 C17.10818909 12.27995848 17.10297309 13.68880756 17.09765625 15.09765625 C17.09579202 16.53112234 17.09436814 17.96458907 17.09336853 19.39805603 C17.08954372 23.17759957 17.07971377 26.9571049 17.06866455 30.7366333 C17.05844963 34.59069298 17.05387074 38.44475882 17.04882812 42.29882812 C17.03809145 49.86590488 17.02049497 57.43294223 17 65 C11.39 65 5.78 65 0 65 C0 43.55 0 22.1 0 0 Z " fill="#000000" transform="translate(373,165)"/>
<path d="M0 0 C5.61 0 11.22 0 17 0 C17 20.79 17 41.58 17 63 C11.39 63 5.78 63 0 63 C0 42.21 0 21.42 0 0 Z " fill="#000000" transform="translate(256,261)"/>
<path d="M0 0 C0.66 0 1.32 0 2 0 C3.21411133 1.30664062 3.21411133 1.30664062 4.58203125 3.15625 C5.09588379 3.84178955 5.60973633 4.5273291 6.13916016 5.23364258 C6.6913623 5.98154053 7.24356445 6.72943848 7.8125 7.5 C12.98795912 14.39890602 18.30175589 21.15368247 23.77270508 27.8203125 C31 36.63125037 31 36.63125037 31 39 C13.75378139 41.54376221 13.75378139 41.54376221 7.77783203 37.49414062 C3.92637647 33.73185244 0.92362278 29.39750493 -1.86767578 24.80957031 C-3.02278533 22.85827435 -3.02278533 22.85827435 -4.90625 20.8125 C-6 19 -6 19 -5.7421875 16.484375 C-5.45601563 15.58203125 -5.16984375 14.6796875 -4.875 13.75 C-4.57722656 12.78964844 -4.27945312 11.82929688 -3.97265625 10.83984375 C-2.72297789 7.19118444 -1.42080698 3.58584618 0 0 Z " fill="#000000" transform="translate(289,191)"/>
<path d="M0 0 C4.62 0 9.24 0 14 0 C12.30808566 8.9589922 9.29557311 17.44717762 6.375 26.0625 C5.85374655 27.61118679 5.33290964 29.16001384 4.8125 30.70898438 C3.54646623 34.47429156 2.27480038 38.2376523 1 42 C0.67 42 0.34 42 0 42 C0 28.14 0 14.28 0 0 Z " fill="#010101" transform="translate(256,165)"/>
<path d="M0 0 C5 0 5 0 7.01953125 1.75 C7.61121094 2.4925 8.20289063 3.235 8.8125 4 C9.41707031 4.7425 10.02164063 5.485 10.64453125 6.25 C11.09183594 6.8275 11.53914062 7.405 12 8 C12.33 5.36 12.66 2.72 13 0 C14.65 0 16.3 0 18 0 C18 6.27 18 12.54 18 19 C13 19 13 19 11.19921875 17.46875 C10.70035156 16.8190625 10.20148438 16.169375 9.6875 15.5 C9.17574219 14.8503125 8.66398438 14.200625 8.13671875 13.53125 C7.57404297 12.77328125 7.57404297 12.77328125 7 12 C6.67 14.31 6.34 16.62 6 19 C4.02 19 2.04 19 0 19 C0 12.73 0 6.46 0 0 Z " fill="#010101" transform="translate(230,234)"/>
<path d="M0 0 C1.65 0 3.3 0 5 0 C5 2.31 5 4.62 5 7 C7.64 7 10.28 7 13 7 C13 4.69 13 2.38 13 0 C14.65 0 16.3 0 18 0 C18 6.27 18 12.54 18 19 C16.35 19 14.7 19 13 19 C13 16.69 13 14.38 13 12 C10.36 12 7.72 12 5 12 C5 14.31 5 16.62 5 19 C3.35 19 1.7 19 0 19 C0 12.73 0 6.46 0 0 Z " fill="#010101" transform="translate(335,234)"/>
<path d="M0 0 C4.95 0 9.9 0 15 0 C15 1.32 15 2.64 15 4 C12.03 4 9.06 4 6 4 C6 4.99 6 5.98 6 7 C8.64 7 11.28 7 14 7 C14 8.65 14 10.3 14 12 C11.36 12 8.72 12 6 12 C6 12.99 6 13.98 6 15 C9.3 15 12.6 15 16 15 C16 16.32 16 17.64 16 19 C10.72 19 5.44 19 0 19 C0 12.73 0 6.46 0 0 Z " fill="#010101" transform="translate(185,234)"/>
<path d="M0 0 C2.5625 2 2.5625 2 4 4 C3.34 4.66 2.68 5.32 2 6 C-0.02946099 5.710077 -2.05882465 5.41919101 -4.0859375 5.11328125 C-6.11032953 4.82384032 -6.11032953 4.82384032 -8.0625 6.125 C-9.35899648 8.71799295 -8.80724735 10.28471346 -8 13 C-6.02 13.66 -4.04 14.32 -2 15 C-2 13.35 -2 11.7 -2 10 C-0.35 9.67 1.3 9.34 3 9 C3 11.97 3 14.94 3 18 C-0.83822178 19.80622201 -3.76365622 20.51873597 -8 20 C-13.57894737 16.84210526 -13.57894737 16.84210526 -15 14 C-15.5811138 6.91041162 -15.5811138 6.91041162 -13.125 3.0625 C-9.23373687 -0.71431421 -5.22544014 -0.71466943 0 0 Z " fill="#010101" transform="translate(303,234)"/>
<path d="M0 0 C1.65 0 3.3 0 5 0 C6.34070318 2.60060504 7.67273354 5.20504916 9 7.8125 C9.3815625 8.55048828 9.763125 9.28847656 10.15625 10.04882812 C10.5171875 10.76103516 10.878125 11.47324219 11.25 12.20703125 C11.58515625 12.8616333 11.9203125 13.51623535 12.265625 14.19067383 C13 16 13 16 13 19 C11.35 19 9.7 19 8 19 C7.67 18.01 7.34 17.02 7 16 C4.03 16 1.06 16 -2 16 C-2 16.99 -2 17.98 -2 19 C-3.98 19 -5.96 19 -8 19 C-6.00386732 12.2813095 -3.2708579 6.19265192 0 0 Z M2 7 C1.67 8.32 1.34 9.64 1 11 C1.99 11 2.98 11 4 11 C3.67 9.68 3.34 8.36 3 7 C2.67 7 2.34 7 2 7 Z " fill="#010101" transform="translate(266,234)"/>
<path d="M0 0 C1.65 0 3.3 0 5 0 C5 6.27 5 12.54 5 19 C3.35 19 1.7 19 0 19 C0 12.73 0 6.46 0 0 Z " fill="#010101" transform="translate(318,234)"/>
<path d="M0 0 C2.64 0 5.28 0 8 0 C8 1.65 8 3.3 8 5 C5.36 5 2.72 5 0 5 C0 3.35 0 1.7 0 0 Z " fill="#010101" transform="translate(211,243)"/>
</svg>
